<svg id="Layer_5" enable-background="new 0 0 64 64" height="512" viewBox="0 0 64 64" width="512" xmlns="http://www.w3.org/2000/svg"><g><path d="m32 49c-1.654 0-3 1.346-3 3s1.346 3 3 3 3-1.346 3-3-1.346-3-3-3zm0 4c-.551 0-1-.449-1-1s.449-1 1-1 1 .449 1 1-.449 1-1 1z"/><path d="m63.168 42-1.333-8.541c-.54-4.859-3.58-9.096-7.982-11.172l-.072-.287h.219c3.309 0 6-2.691 6-6v-5c0-5.514-4.486-10-10-10s-10 4.486-10 10v5c0 3.309 2.691 6 6 6h.219l-.072.287c-1.759.828-3.302 2.002-4.568 3.448-1.095-3.326-4.225-5.735-7.912-5.735h-3.333c-3.687 0-6.818 2.409-7.913 5.735-1.266-1.446-2.809-2.62-4.568-3.448l-.258-1.034c1.164-.713 2.024-1.874 2.305-3.253h.1c2.206 0 4-1.794 4-4 0-.683-.188-1.316-.49-1.879.319-.896.49-1.83.49-2.788 0-4.595-3.738-8.333-8.333-8.333h-3.333c-4.596 0-8.334 3.738-8.334 8.333 0 .958.171 1.892.49 2.788-.302.563-.49 1.196-.49 1.879 0 2.206 1.794 4 4 4h.101c.281 1.38 1.141 2.541 2.305 3.253l-.258 1.034c-4.402 2.076-7.443 6.313-7.982 11.172l-1.283 11.541h2.117v2c0 2.206 1.794 4 4 4v12h15.631 1.296 4.202 7.741 5.13.369 17.631v-9.292c0-2.003-.221-4.005-.629-5.969 1.534-.566 2.629-2.028 2.629-3.739v-2zm-14.168-20h2c.24 0 .47-.038.701-.071l.295 1.18c-.006.973-.096 1.94-.266 2.891h-3.461c-.17-.951-.26-1.918-.266-2.891l.295-1.18c.232.033.462.071.702.071zm2.247 6c-.319 1.039-.733 2.049-1.247 3.013-.513-.964-.928-1.974-1.246-3.013zm-9.247-12v-5c0-4.411 3.589-8 8-8s8 3.589 8 8v5c0 1.813-1.22 3.331-2.877 3.82.552-.804.877-1.774.877-2.82v-6h-1c-1.582 0-2-1.962-2-3h-2c0 2.147 1.026 4.318 3 4.867v4.133c0 1.654-1.346 3-3 3h-2c-1.654 0-3-1.346-3-3v-4.438c0-.46.312-.859.758-.97l1.171-.293c.671 1.011 1.698 1.701 3.071 1.701v-2c-1.582 0-2-1.962-2-3h-2c0 .482.053.964.156 1.43l-.883.221c-1.338.334-2.273 1.531-2.273 2.911v4.438c0 1.046.325 2.016.877 2.82-1.657-.489-2.877-2.007-2.877-3.82zm4.074 8.591c.243 2.896 1.139 5.707 2.64 8.211l1.286 2.141 1.285-2.141c1.502-2.504 2.397-5.315 2.64-8.21 3.271 1.909 5.498 5.276 5.927 9.131l.98 6.277h-4.683c.284-2.086.851-6.433.851-8 0-2.347-1.161-3.575-1.293-3.707l-1.425 1.403c.029.031.718.785.718 2.304 0 1.503-.608 6.089-.87 8h-8.26c-.262-1.911-.87-6.496-.87-8 0-1.519.689-2.273.718-2.304l-.718-.696-.707-.707c-.132.132-1.293 1.36-1.293 3.707 0 1.567.567 5.914.851 8h-4.401l.703-6.322c.006-.052.013-.104.02-.156 1.125-1.417 1.777-3.18 1.816-5.014 1.041-1.626 2.434-2.957 4.085-3.917zm-3.436 19.458c-.825-.769-1.731-1.455-2.706-2.049h3.504c-.292.673-.558 1.357-.798 2.049zm-15.997-3.332-.514-4.631c.299 1.341 1.141 2.47 2.279 3.167l-.233.934c-.525.151-1.033.332-1.532.53zm3.359.407.299-1.194c.231.032.461.07.701.07h2c.24 0 .47-.038.701-.071l.299 1.195v.876c0 1.103-.897 2-2 2s-2-.897-2-2zm3-3.124h-2c-1.654 0-3-1.346-3-3v-5.085c1.122-.193 2.159-.709 3-1.504 1.086 1.026 2.5 1.589 4 1.589h1v5c0 1.654-1.346 3-3 3zm2.828 2.187-.233-.934c1.139-.697 1.981-1.826 2.28-3.168l-.515 4.631c-.5-.197-1.008-.378-1.532-.529zm-5.495-18.187h3.333c3.493 0 6.334 2.841 6.334 6.333 0 1.748-.738 3.426-2 4.615v-4.948h-3c-1.022 0-1.984-.398-2.707-1.121l-1.293-1.293-1.293 1.293c-.723.723-1.685 1.121-2.707 1.121h-1v4.949c-1.262-1.189-2-2.867-2-4.615 0-3.493 2.841-6.334 6.333-6.334zm-8.323 6.509c.039 1.833.691 3.597 1.817 5.014.007.053.014.104.02.158l.882 7.939c-.745.409-1.451.872-2.118 1.382h-1.716l-.901-8.11-1.987.221.876 7.887h-3.015l1.161-1.742-1.018-10.432.127-.508 1.571 1.44.999-6.669c1.312.903 2.431 2.058 3.302 3.42zm-9.354-1.634-.946.867-.398-2.66zm1.344 1.482.462.423-.242.97h-.438l-.242-.97zm2.688-3.274-.398 2.66-.946-.867zm-2.781 6.667h.186l.877 8.992-.97 1.455-.97-1.455zm6.093-15.75v-4c1.103 0 2 .897 2 2s-.897 2-2 2zm-14-2c0-1.103.897-2 2-2v4c-1.103 0-2-.897-2-2zm3.171-4h-.171-1c-.687 0-1.323.19-1.889.496-.071-.382-.111-.769-.111-1.163 0-3.492 2.841-6.333 6.333-6.333h3.333c3.493 0 6.334 2.841 6.334 6.333 0 .393-.04.781-.111 1.162-.566-.305-1.202-.495-1.889-.495h-1-.171c-1.557 0-3.021-.606-4.122-1.707l-.707-.707-.707.707c-1.101 1.101-2.564 1.707-4.122 1.707zm.829 1.957c1.466-.153 2.843-.712 4-1.622 1.157.91 2.534 1.469 4 1.622v5.043c0 1.654-1.346 3-3 3h-2c-1.654 0-3-1.346-3-3zm3 10.043h2c.24 0 .47-.038.702-.071l.213.852-1.915 2.552-1.915-2.553.213-.852c.232.034.462.072.702.072zm-8.847 11.68c.389-3.5 2.307-6.602 5.141-8.568l.995 6.646 1.571-1.44.127.508-1.017 10.432 1.162 1.742h-3.015l.877-7.89-1.988-.22-.901 8.11h-3.988zm.847 13.32v-2h2v4c-1.103 0-2-.897-2-2zm4-2h11.419c-2.767 3.024-4.419 7.033-4.419 11.369 0 1.801.724 3.435 1.894 4.631h-2.894v-12h-2v12h-4zm13.631 16c-2.554 0-4.631-2.077-4.631-4.631 0-6.399 4.067-12.005 10.033-14.042.088 1.066.588 2.007 1.349 2.673h-2.688c-2.588 0-4.694 2.106-4.694 4.694 0 .259.021.518.064.772l.756 4.534h-2.82v2h3.153l.346 2.078c.12.717.409 1.361.803 1.922h-.375zm5.498 0c-1.323 0-2.44-.947-2.658-2.251l-1.435-8.612c-.024-.147-.036-.295-.036-.443 0-1.486 1.208-2.694 2.694-2.694h10.611c1.487 0 2.695 1.208 2.695 2.694 0 .148-.012.296-.037.443l-1.435 8.611c-.217 1.305-1.335 2.252-2.657 2.252zm12.871 0h-1.302c.394-.561.684-1.205.803-1.922l.346-2.078h3.153v-2h-2.819l.755-4.533c.043-.255.064-.513.064-.773 0-2.588-2.106-4.694-4.694-4.694h-2.688c.762-.665 1.261-1.607 1.349-2.673 5.966 2.037 10.033 7.643 10.033 14.042 0 2.554-2.077 4.631-4.631 4.631zm16 0h-10.894c1.17-1.196 1.894-2.83 1.894-4.631 0-4.001-1.412-7.721-3.803-10.649.388-1.272.869-2.518 1.437-3.72h8.728c1.721 3.646 2.638 7.678 2.638 11.708zm2-17c0 .775-.448 1.453-1.102 1.784-.36-1.289-.801-2.556-1.332-3.784h2.434z"/></g></svg>